<svg width="104" height="106" viewBox="0 0 104 106" fill="none" xmlns="http://www.w3.org/2000/svg">
<path d="M51.5 101H18C10.8203 101 5 95.1797 5 88V28C5 20.8203 10.8203 15 18 15H86C93.1797 15 99 20.8203 99 28V51M78 5C78 13.201 78 26 78 26M51.5 5V26M26 5V26M78 72.5V80.5C78 81.0523 78.4477 81.5 79 81.5H84.5" stroke="#2266D1" stroke-width="9" stroke-linecap="round"/>
<circle cx="26" cy="45" r="4.5" fill="#5E13E8"/>
<circle cx="26" cy="62" r="4.5" fill="#D9D9D9"/>
<circle cx="26" cy="62" r="4.5" fill="#5E13E8"/>
<circle cx="26" cy="79" r="4.5" fill="#5E13E8"/>
<circle cx="43" cy="45" r="4.5" fill="#5E13E8"/>
<circle cx="43" cy="62" r="4.5" fill="#5E13E8"/>
<circle cx="43" cy="79" r="4.5" fill="#5E13E8"/>
<circle cx="79" cy="80" r="20" stroke="#2266D1" stroke-width="7"/>
<circle cx="60" cy="45" r="4.5" fill="#5E13E8"/>
<circle cx="77" cy="45" r="4.5" fill="#5E13E8"/>
</svg>
