<svg width="320" height="361" viewBox="0 0 320 361" fill="none" xmlns="http://www.w3.org/2000/svg">
<path d="M94.7507 352.779C94.6261 352.787 94.4932 352.791 94.352 352.791C94.2108 352.791 94.001 352.781 93.7227 352.76V356H92.0716V347.67C92.6532 347.595 93.3676 347.558 94.2149 347.558C95.3696 347.558 96.2294 347.772 96.7943 348.199C97.3634 348.623 97.6479 349.279 97.6479 350.168C97.6479 350.858 97.3883 351.448 96.8691 351.938C96.6988 352.096 96.5036 352.233 96.2834 352.349L97.5545 355.028C97.8037 355.58 97.9947 355.909 98.1277 356.012L98.0965 356.044C97.6936 355.977 97.0602 355.979 96.1962 356.05L94.7507 352.779ZM94.3333 349.028C94.1215 349.028 93.9179 349.038 93.7227 349.059V351.439C93.9262 351.468 94.1651 351.483 94.4392 351.483C94.7134 351.483 94.9439 351.46 95.1308 351.414C95.3177 351.365 95.4797 351.29 95.6168 351.19C95.9117 350.97 96.0591 350.64 96.0591 350.199C96.0591 349.759 95.9055 349.45 95.5981 349.271C95.3115 349.109 94.8899 349.028 94.3333 349.028ZM103.654 355.614C103.064 355.934 102.531 356.093 102.053 356.093C101.575 356.093 101.166 356.05 100.825 355.963C100.485 355.871 100.196 355.738 99.9594 355.564C99.4776 355.211 99.2367 354.7 99.2367 354.031C99.2367 353.433 99.5316 352.935 100.121 352.536C100.761 352.104 101.629 351.888 102.726 351.888L102.975 351.894C103.025 351.898 103.081 351.902 103.143 351.907C103.205 351.907 103.262 351.911 103.311 351.919C103.278 351.254 102.992 350.866 102.452 350.754C102.273 350.717 102.082 350.698 101.878 350.698C101.679 350.698 101.482 350.717 101.287 350.754C101.095 350.787 100.909 350.833 100.726 350.891C100.323 351.02 100.034 351.167 99.8597 351.333L99.841 351.321L99.6541 349.944C100.389 349.558 101.193 349.365 102.065 349.365C103.419 349.365 104.285 349.853 104.663 350.829C104.784 351.14 104.844 351.491 104.844 351.882V354.137C104.844 354.619 105.014 354.947 105.355 355.122L104.227 356.156C103.991 356.031 103.799 355.85 103.654 355.614ZM103.318 353.041C103.205 353.02 103.089 353.009 102.969 353.009H102.72C101.802 353.009 101.218 353.213 100.969 353.62C100.894 353.74 100.857 353.867 100.857 354C100.857 354.133 100.879 354.251 100.925 354.355C100.975 354.455 101.056 354.538 101.168 354.604C101.384 354.729 101.704 354.791 102.128 354.791C102.555 354.791 102.954 354.69 103.324 354.486C103.32 354.44 103.318 354.393 103.318 354.343V353.041ZM111.261 355.651C110.734 355.946 110.206 356.093 109.679 356.093C109.151 356.093 108.69 356.01 108.296 355.844C107.901 355.678 107.565 355.45 107.286 355.159C106.713 354.561 106.427 353.784 106.427 352.829C106.427 351.84 106.759 351.018 107.424 350.361C108.092 349.697 108.948 349.365 109.99 349.365C110.31 349.365 110.624 349.406 110.931 349.489V346.717H112.458V353.377C112.458 353.929 112.483 354.291 112.533 354.461C112.586 354.631 112.645 354.756 112.707 354.835C112.773 354.914 112.856 354.989 112.956 355.059L111.785 356.093C111.569 355.977 111.394 355.83 111.261 355.651ZM109.972 354.66C110.321 354.66 110.641 354.594 110.931 354.461V351.009C110.641 350.889 110.325 350.829 109.984 350.829C109.644 350.829 109.351 350.874 109.106 350.966C108.865 351.057 108.657 351.184 108.483 351.346C108.117 351.686 107.934 352.129 107.934 352.673C107.934 353.267 108.101 353.74 108.433 354.093C108.79 354.471 109.303 354.66 109.972 354.66ZM114.059 347.632C114.391 347.113 114.738 346.656 115.099 346.262L116.439 347.315C116.26 347.535 116.094 347.751 115.941 347.963C115.941 347.963 115.781 348.189 115.461 348.642L114.059 347.632ZM115.698 355.302C115.698 355.659 115.706 355.892 115.722 356H114.14V349.489H115.698V355.302ZM121.76 355.614C121.17 355.934 120.636 356.093 120.159 356.093C119.681 356.093 119.272 356.05 118.931 355.963C118.591 355.871 118.302 355.738 118.065 355.564C117.583 355.211 117.342 354.7 117.342 354.031C117.342 353.433 117.637 352.935 118.227 352.536C118.867 352.104 119.735 351.888 120.831 351.888L121.081 351.894C121.131 351.898 121.187 351.902 121.249 351.907C121.311 351.907 121.367 351.911 121.417 351.919C121.384 351.254 121.097 350.866 120.557 350.754C120.379 350.717 120.188 350.698 119.984 350.698C119.785 350.698 119.587 350.717 119.392 350.754C119.201 350.787 119.014 350.833 118.832 350.891C118.429 351.02 118.14 351.167 117.965 351.333L117.947 351.321L117.76 349.944C118.495 349.558 119.299 349.365 120.171 349.365C121.525 349.365 122.391 349.853 122.769 350.829C122.89 351.14 122.95 351.491 122.95 351.882V354.137C122.95 354.619 123.12 354.947 123.461 355.122L122.333 356.156C122.096 356.031 121.905 355.85 121.76 355.614ZM121.423 353.041C121.311 353.02 121.195 353.009 121.074 353.009H120.825C119.907 353.009 119.324 353.213 119.074 353.62C119 353.74 118.962 353.867 118.962 354C118.962 354.133 118.985 354.251 119.031 354.355C119.081 354.455 119.162 354.538 119.274 354.604C119.49 354.729 119.81 354.791 120.233 354.791C120.661 354.791 121.06 354.69 121.43 354.486C121.425 354.44 121.423 354.393 121.423 354.343V353.041ZM126.539 355.202C126.539 355.568 126.555 355.834 126.588 356H125.025V349.489H126.539V350.044C127.087 349.591 127.673 349.365 128.296 349.365C128.977 349.365 129.521 349.597 129.928 350.062C130.335 350.523 130.539 351.132 130.539 351.888V354.368C130.539 355.07 130.549 355.491 130.57 355.632C130.59 355.774 130.617 355.865 130.651 355.907C130.688 355.948 130.719 355.985 130.744 356.019L130.732 356.044C130.395 356.015 130.15 356 129.997 356H129.56C129.427 356 129.249 356.006 129.025 356.019V352.623C129.025 351.406 128.655 350.798 127.916 350.798C127.367 350.798 126.908 351.08 126.539 351.645V355.202ZM135.255 354.629C135.791 354.629 136.158 354.49 136.358 354.212H136.408L136.426 355.657C136.223 355.861 135.845 355.996 135.292 356.062C135.143 356.083 134.956 356.093 134.732 356.093C134.512 356.093 134.271 356.052 134.009 355.969C133.751 355.886 133.531 355.751 133.348 355.564C132.971 355.178 132.782 354.573 132.782 353.751V350.922H131.841C131.837 350.802 131.834 350.679 131.834 350.555V349.595C131.834 349.524 131.837 349.489 131.841 349.489H132.782V347.713H134.308V349.489H136.021V350.922H134.308V353.464C134.308 354.116 134.489 354.488 134.85 354.579C134.966 354.613 135.101 354.629 135.255 354.629ZM146.258 354.505C146.516 354.505 146.694 354.48 146.794 354.43L146.819 354.436L146.756 356H142.09V347.67C142.202 347.678 142.327 347.684 142.464 347.689L142.9 347.701C143.191 347.709 143.506 347.713 143.847 347.713C144.798 347.713 145.739 347.697 146.669 347.664C146.624 348.029 146.601 348.517 146.601 349.128C146.601 349.194 146.605 349.244 146.613 349.277L146.601 349.296C146.385 349.234 146.077 349.203 145.679 349.203H143.716V350.791H145.193C145.65 350.791 145.924 350.779 146.015 350.754L146.034 352.293C145.834 352.272 145.577 352.262 145.261 352.262H143.716V354.505H146.258ZM150.009 354.199C150.009 355.134 150.025 355.734 150.059 356H148.432V349.489H150.009V350.05C150.578 349.593 151.161 349.365 151.76 349.365C152.466 349.365 152.979 349.67 153.298 350.28C153.618 349.952 153.884 349.736 154.096 349.632C154.449 349.454 154.802 349.365 155.155 349.365C155.512 349.365 155.816 349.425 156.065 349.545C156.314 349.666 156.52 349.836 156.682 350.056C157.01 350.501 157.174 351.111 157.174 351.888V354.368C157.174 355.07 157.184 355.491 157.205 355.632C157.226 355.774 157.253 355.865 157.286 355.907C157.323 355.948 157.354 355.985 157.379 356.019L157.367 356.044C157.035 356.015 156.79 356 156.632 356H156.164C156.011 356 155.822 356.006 155.597 356.019V352.648C155.597 351.676 155.448 351.099 155.149 350.916C155.049 350.858 154.931 350.829 154.794 350.829C154.661 350.829 154.542 350.845 154.439 350.879C154.335 350.908 154.237 350.957 154.146 351.028C153.992 351.14 153.818 351.36 153.622 351.689C153.627 351.722 153.629 351.755 153.629 351.788C153.629 351.821 153.629 352.37 153.629 353.433C153.629 354.496 153.654 355.352 153.703 356C153.35 356 153.049 356 152.8 356C152.555 356 152.32 356.006 152.096 356.019V352.642C152.096 351.965 152.054 351.524 151.971 351.321C151.892 351.117 151.807 350.984 151.716 350.922C151.625 350.86 151.512 350.829 151.379 350.829C150.831 350.829 150.374 351.092 150.009 351.62V354.199ZM158.669 352.798C158.669 352.312 158.752 351.861 158.918 351.446C159.084 351.03 159.319 350.667 159.622 350.355C160.27 349.695 161.118 349.365 162.164 349.365C163.049 349.365 163.759 349.657 164.295 350.243C164.823 350.808 165.087 351.518 165.087 352.374C165.087 352.702 165.062 352.926 165.012 353.047C164.596 353.163 163.751 353.221 162.476 353.221H160.283C160.391 353.666 160.642 354.012 161.037 354.262C161.431 354.507 161.944 354.629 162.576 354.629C163.236 354.629 163.803 354.511 164.277 354.274C164.401 354.212 164.495 354.154 164.557 354.1C164.549 354.274 164.538 354.453 164.526 354.636L164.457 355.607C164.142 355.823 163.631 355.973 162.925 356.056C162.717 356.081 162.517 356.093 162.326 356.093C161.271 356.093 160.399 355.786 159.71 355.171C159.016 354.552 158.669 353.761 158.669 352.798ZM163.429 352.012C163.259 351.119 162.773 350.673 161.971 350.673C161.34 350.673 160.86 350.945 160.532 351.489C160.432 351.655 160.356 351.838 160.302 352.037C160.401 352.042 160.524 352.046 160.669 352.05H161.13C161.284 352.054 161.431 352.056 161.573 352.056H161.928C162.139 352.056 162.347 352.054 162.551 352.05L163.062 352.031C163.199 352.027 163.321 352.021 163.429 352.012ZM167.915 355.302C167.915 355.659 167.923 355.892 167.94 356H166.389V349.489H167.915V349.969C168.268 349.566 168.638 349.365 169.024 349.365C169.415 349.365 169.722 349.412 169.946 349.508L169.834 351.184L169.809 351.203C169.664 350.945 169.363 350.816 168.906 350.816C168.731 350.816 168.553 350.876 168.37 350.997C168.191 351.113 168.04 351.269 167.915 351.464V355.302ZM172.42 354.268C172.266 354.471 172.189 354.633 172.189 354.754C172.189 354.87 172.208 354.962 172.245 355.028C172.283 355.09 172.364 355.151 172.488 355.209C172.762 355.337 173.213 355.452 173.84 355.551C174.468 355.647 174.958 355.767 175.311 355.913C175.668 356.058 175.957 356.237 176.177 356.449C176.588 356.851 176.794 357.423 176.794 358.162C176.794 358.901 176.534 359.468 176.015 359.863C175.496 360.262 174.725 360.461 173.703 360.461C172.673 360.461 171.842 360.237 171.211 359.788C170.58 359.34 170.256 358.743 170.239 358C170.214 357.136 170.553 356.511 171.255 356.125C171.064 355.967 170.935 355.782 170.868 355.57C170.806 355.354 170.775 355.109 170.775 354.835C170.775 354.374 170.976 353.983 171.379 353.664C170.91 353.219 170.675 352.667 170.675 352.006C170.675 351.267 170.941 350.648 171.473 350.15C172.033 349.626 172.76 349.365 173.653 349.365C174.123 349.365 174.563 349.452 174.974 349.626C175.514 349.398 175.911 349.198 176.164 349.028C176.418 348.854 176.58 348.727 176.65 348.648L176.688 348.654C176.725 348.754 176.769 348.895 176.818 349.078L176.931 349.527C177.03 349.896 177.091 350.15 177.111 350.287C176.929 350.486 176.607 350.627 176.146 350.71C176.324 351.055 176.414 351.421 176.414 351.807C176.414 352.193 176.347 352.544 176.214 352.86C176.081 353.171 175.892 353.446 175.647 353.682C175.103 354.193 174.409 354.449 173.566 354.449C173.155 354.449 172.773 354.388 172.42 354.268ZM172.258 351.464C172.2 351.614 172.171 351.765 172.171 351.919C172.171 352.073 172.202 352.22 172.264 352.361C172.33 352.503 172.426 352.629 172.551 352.741C172.829 352.991 173.192 353.115 173.641 353.115C173.982 353.115 174.276 353.001 174.526 352.773C174.787 352.523 174.918 352.224 174.918 351.875C174.918 351.522 174.8 351.238 174.563 351.022C174.326 350.806 174 350.698 173.585 350.698C172.9 350.698 172.457 350.953 172.258 351.464ZM173.784 359.14C174.806 359.14 175.317 358.783 175.317 358.069C175.317 357.728 175.151 357.454 174.819 357.246C174.445 357.009 173.803 356.824 172.893 356.692L172.569 356.636C172.295 356.781 172.094 356.968 171.965 357.196C171.836 357.425 171.772 357.641 171.772 357.844C171.776 358.052 171.826 358.231 171.921 358.38C172.017 358.53 172.15 358.66 172.32 358.773C172.698 359.018 173.186 359.14 173.784 359.14ZM177.834 352.798C177.834 352.312 177.917 351.861 178.083 351.446C178.249 351.03 178.484 350.667 178.787 350.355C179.435 349.695 180.283 349.365 181.329 349.365C182.214 349.365 182.924 349.657 183.46 350.243C183.988 350.808 184.251 351.518 184.251 352.374C184.251 352.702 184.227 352.926 184.177 353.047C183.761 353.163 182.916 353.221 181.641 353.221H179.448C179.556 353.666 179.807 354.012 180.202 354.262C180.596 354.507 181.109 354.629 181.741 354.629C182.401 354.629 182.968 354.511 183.441 354.274C183.566 354.212 183.66 354.154 183.722 354.1C183.714 354.274 183.703 354.453 183.691 354.636L183.622 355.607C183.306 355.823 182.796 355.973 182.089 356.056C181.882 356.081 181.682 356.093 181.491 356.093C180.436 356.093 179.564 355.786 178.875 355.171C178.181 354.552 177.834 353.761 177.834 352.798ZM182.594 352.012C182.424 351.119 181.938 350.673 181.136 350.673C180.505 350.673 180.025 350.945 179.697 351.489C179.597 351.655 179.52 351.838 179.466 352.037C179.566 352.042 179.689 352.046 179.834 352.05H180.295C180.449 352.054 180.596 352.056 180.737 352.056H181.093C181.304 352.056 181.512 352.054 181.716 352.05L182.227 352.031C182.364 352.027 182.486 352.021 182.594 352.012ZM187.248 355.202C187.248 355.568 187.265 355.834 187.298 356H185.734V349.489H187.248V350.044C187.797 349.591 188.382 349.365 189.005 349.365C189.686 349.365 190.231 349.597 190.638 350.062C191.045 350.523 191.248 351.132 191.248 351.888V354.368C191.248 355.07 191.259 355.491 191.279 355.632C191.3 355.774 191.327 355.865 191.36 355.907C191.398 355.948 191.429 355.985 191.454 356.019L191.441 356.044C191.105 356.015 190.86 356 190.706 356H190.27C190.137 356 189.959 356.006 189.734 356.019V352.623C189.734 351.406 189.365 350.798 188.625 350.798C188.077 350.798 187.618 351.08 187.248 351.645V355.202ZM198.164 355.396C197.699 355.861 196.97 356.093 195.977 356.093C195.014 356.093 194.226 355.801 193.616 355.215C192.997 354.621 192.687 353.832 192.687 352.847C192.687 351.846 192.993 351.024 193.603 350.38C194.251 349.703 195.117 349.365 196.201 349.365C196.97 349.365 197.614 349.533 198.133 349.869L197.884 351.464L197.84 351.458C197.641 351.217 197.431 351.059 197.211 350.984C196.854 350.86 196.496 350.798 196.139 350.798C195.782 350.798 195.502 350.843 195.298 350.935C195.095 351.026 194.92 351.153 194.775 351.315C194.484 351.647 194.339 352.087 194.339 352.636C194.339 353.607 194.675 354.243 195.348 354.542C195.58 354.642 195.826 354.692 196.083 354.692C196.345 354.692 196.571 354.669 196.762 354.623C196.957 354.577 197.134 354.515 197.292 354.436C197.628 354.27 197.857 354.077 197.977 353.857L198.021 353.875L198.164 355.396ZM198.868 358.168L199.279 357.838C199.898 357.335 200.411 356.594 200.818 355.614L201.105 354.922L198.719 349.489H200.463L201.958 353.252L203.348 349.489H205.142C204.926 349.788 204.662 350.345 204.351 351.159L203.416 353.47C202.166 356.411 201.186 358.164 200.476 358.729L198.868 358.168ZM210.133 347.67C210.71 347.595 211.302 347.558 211.908 347.558C213.038 347.558 213.896 347.824 214.482 348.355C215.071 348.883 215.366 349.674 215.366 350.729C215.366 351.672 215.044 352.417 214.401 352.966C213.798 353.481 213.024 353.738 212.077 353.738C211.969 353.738 211.85 353.732 211.722 353.72V356H210.133V347.67ZM212.095 349.059C211.971 349.059 211.846 349.063 211.722 349.072V352.349C211.854 352.366 212.016 352.374 212.208 352.374C212.399 352.374 212.598 352.334 212.806 352.255C213.013 352.172 213.188 352.058 213.329 351.913C213.624 351.61 213.771 351.211 213.771 350.717C213.771 349.612 213.213 349.059 212.095 349.059ZM217.933 355.302C217.933 355.659 217.942 355.892 217.958 356H216.376V346.717H217.933V355.302ZM223.591 355.433C223.059 355.873 222.48 356.093 221.852 356.093C221.179 356.093 220.652 355.867 220.27 355.414C219.904 354.974 219.721 354.37 219.721 353.601V351.128C219.721 350.297 219.703 349.821 219.665 349.701C219.632 349.576 219.607 349.497 219.591 349.464C219.782 349.481 219.981 349.489 220.189 349.489H220.706C220.843 349.489 221.024 349.483 221.248 349.47V353.078C221.248 353.934 221.481 354.43 221.946 354.567C222.087 354.609 222.241 354.629 222.407 354.629C222.897 354.629 223.292 354.451 223.591 354.093V349.489H225.136V355.202C225.136 355.568 225.152 355.834 225.186 356H223.591V355.433ZM228.812 354.199C228.812 355.134 228.828 355.734 228.862 356H227.235V349.489H228.812V350.05C229.381 349.593 229.964 349.365 230.563 349.365C231.269 349.365 231.782 349.67 232.101 350.28C232.421 349.952 232.687 349.736 232.899 349.632C233.252 349.454 233.605 349.365 233.958 349.365C234.315 349.365 234.619 349.425 234.868 349.545C235.117 349.666 235.323 349.836 235.485 350.056C235.813 350.501 235.977 351.111 235.977 351.888V354.368C235.977 355.07 235.987 355.491 236.008 355.632C236.029 355.774 236.056 355.865 236.089 355.907C236.126 355.948 236.157 355.985 236.182 356.019L236.17 356.044C235.838 356.015 235.593 356 235.435 356H234.967C234.814 356 234.625 356.006 234.4 356.019V352.648C234.4 351.676 234.251 351.099 233.952 350.916C233.852 350.858 233.734 350.829 233.597 350.829C233.464 350.829 233.345 350.845 233.242 350.879C233.138 350.908 233.04 350.957 232.949 351.028C232.795 351.14 232.621 351.36 232.425 351.689C232.43 351.722 232.432 351.755 232.432 351.788C232.432 351.821 232.432 352.37 232.432 353.433C232.432 354.496 232.457 355.352 232.506 356C232.153 356 231.852 356 231.603 356C231.358 356 231.123 356.006 230.899 356.019V352.642C230.899 351.965 230.857 351.524 230.774 351.321C230.695 351.117 230.61 350.984 230.519 350.922C230.428 350.86 230.315 350.829 230.182 350.829C229.634 350.829 229.177 351.092 228.812 351.62V354.199ZM239.341 349.726C239.806 349.485 240.282 349.365 240.768 349.365C241.254 349.365 241.671 349.441 242.02 349.595C242.373 349.745 242.683 349.961 242.949 350.243C243.526 350.87 243.815 351.664 243.815 352.623C243.815 353.674 243.501 354.521 242.874 355.165C242.272 355.784 241.522 356.093 240.625 356.093C239.836 356.093 239.185 355.888 238.675 355.477C238.101 355.011 237.815 354.37 237.815 353.551V346.729H239.341V349.726ZM239.341 353.533C239.341 354.264 239.796 354.629 240.706 354.629C241.15 354.629 241.524 354.434 241.827 354.044C242.135 353.645 242.288 353.149 242.288 352.555C242.288 351.956 242.126 351.506 241.802 351.203C241.512 350.933 241.121 350.798 240.631 350.798C240.336 350.798 240.01 350.897 239.653 351.097C239.541 351.159 239.437 351.227 239.341 351.302V353.533ZM244.874 352.798C244.874 352.312 244.957 351.861 245.123 351.446C245.289 351.03 245.524 350.667 245.827 350.355C246.475 349.695 247.322 349.365 248.369 349.365C249.254 349.365 249.964 349.657 250.5 350.243C251.028 350.808 251.291 351.518 251.291 352.374C251.291 352.702 251.266 352.926 251.217 353.047C250.801 353.163 249.956 353.221 248.681 353.221H246.488C246.596 353.666 246.847 354.012 247.241 354.262C247.636 354.507 248.149 354.629 248.78 354.629C249.441 354.629 250.008 354.511 250.481 354.274C250.606 354.212 250.699 354.154 250.762 354.1C250.753 354.274 250.743 354.453 250.731 354.636L250.662 355.607C250.346 355.823 249.835 355.973 249.129 356.056C248.922 356.081 248.722 356.093 248.531 356.093C247.476 356.093 246.604 355.786 245.914 355.171C245.221 354.552 244.874 353.761 244.874 352.798ZM249.634 352.012C249.464 351.119 248.978 350.673 248.176 350.673C247.545 350.673 247.065 350.945 246.737 351.489C246.637 351.655 246.56 351.838 246.506 352.037C246.606 352.042 246.728 352.046 246.874 352.05H247.335C247.489 352.054 247.636 352.056 247.777 352.056H248.132C248.344 352.056 248.552 352.054 248.755 352.05L249.266 352.031C249.403 352.027 249.526 352.021 249.634 352.012ZM254.12 355.302C254.12 355.659 254.128 355.892 254.145 356H252.593V349.489H254.12V349.969C254.473 349.566 254.843 349.365 255.229 349.365C255.619 349.365 255.927 349.412 256.151 349.508L256.039 351.184L256.014 351.203C255.869 350.945 255.567 350.816 255.111 350.816C254.936 350.816 254.757 350.876 254.575 350.997C254.396 351.113 254.245 351.269 254.12 351.464V355.302Z" fill="#3F77D2"/>
<path d="M112.266 312.584C111.361 312.644 110.394 312.674 109.368 312.674C108.341 312.674 106.816 312.599 104.793 312.448V336H92.7904V275.443C97.0177 274.9 102.211 274.628 108.371 274.628C116.765 274.628 123.016 276.183 127.122 279.293C131.259 282.373 133.328 287.144 133.328 293.606C133.328 298.618 131.44 302.906 127.666 306.469C126.428 307.616 125.009 308.613 123.408 309.458L132.648 328.934C134.46 332.95 135.849 335.336 136.815 336.091L136.589 336.317C133.66 335.834 129.055 335.849 122.774 336.362L112.266 312.584ZM109.232 285.317C107.692 285.317 106.212 285.393 104.793 285.544V302.846C106.273 303.057 108.009 303.163 110.002 303.163C111.995 303.163 113.67 302.997 115.029 302.664C116.388 302.302 117.566 301.759 118.562 301.034C120.706 299.433 121.778 297.033 121.778 293.832C121.778 290.632 120.661 288.382 118.426 287.084C116.343 285.906 113.278 285.317 109.232 285.317ZM191.085 325.13C192.957 325.13 194.256 324.949 194.98 324.586L195.162 324.631L194.709 336H160.784V275.443C161.599 275.504 162.505 275.549 163.502 275.579L166.672 275.67C168.786 275.73 171.081 275.76 173.557 275.76C180.472 275.76 187.311 275.64 194.075 275.398C193.742 278.055 193.576 281.603 193.576 286.042C193.576 286.525 193.607 286.887 193.667 287.129L193.576 287.265C192.006 286.812 189.772 286.585 186.873 286.585H172.606V298.135H183.34C186.662 298.135 188.654 298.044 189.319 297.863L189.455 309.051C188.005 308.9 186.133 308.824 183.838 308.824H172.606V325.13H191.085ZM220.308 275.443C224.505 274.9 228.808 274.628 233.217 274.628C241.43 274.628 247.665 276.561 251.923 280.426C256.21 284.26 258.354 290.013 258.354 297.682C258.354 304.536 256.014 309.957 251.334 313.942C246.956 317.687 241.324 319.559 234.44 319.559C233.655 319.559 232.794 319.513 231.858 319.423V336H220.308V275.443ZM234.576 285.544C233.67 285.544 232.764 285.574 231.858 285.634V309.458C232.824 309.579 234.002 309.639 235.391 309.639C236.78 309.639 238.229 309.353 239.739 308.779C241.249 308.175 242.517 307.345 243.544 306.288C245.687 304.084 246.759 301.185 246.759 297.592C246.759 289.56 242.698 285.544 234.576 285.544Z" fill="#3F77D2"/>
<path d="M260.467 36.647V117.614C260.467 131.218 258.254 142.962 254.561 153.091C247.338 172.859 234.44 186.477 221.216 195.764C199.601 210.93 177.131 214.542 177.131 214.542C177.131 214.542 154.607 210.93 132.965 195.71C119.741 186.41 106.87 172.778 99.674 152.996C95.994 142.895 93.795 131.178 93.795 117.614V36.647L96.958 34.855C109.191 27.958 122.211 22.703 135.68 19.16C149.162 15.617 163.092 13.811 177.131 13.811C205.222 13.811 232.838 21.061 257.304 34.855L260.467 36.647Z" fill="white"/>
<path d="M255.98 40.822V117.43C255.98 130.302 253.886 141.414 250.392 150.997C243.558 169.701 231.354 182.585 218.842 191.372C198.391 205.721 177.131 209.138 177.131 209.138C177.131 209.138 155.819 205.721 135.343 191.32C122.831 182.52 110.653 169.623 103.844 150.906C100.363 141.348 98.282 130.262 98.282 117.429V40.821L101.275 39.125C112.849 32.599 125.169 27.628 137.912 24.275C150.668 20.922 163.848 19.214 177.131 19.214C203.71 19.214 229.838 26.074 252.987 39.125L255.98 40.822Z" fill="white"/>
<mask id="mask0_78_578" style="mask-type:luminance" maskUnits="userSpaceOnUse" x="85" y="-2" width="171" height="210">
<path d="M255.98 38.822V115.43C255.98 128.302 253.886 139.414 250.392 148.997C243.558 167.701 231.354 180.585 218.842 189.372C198.391 203.721 177.131 207.138 177.131 207.138C177.131 207.138 155.819 203.721 135.343 189.32C122.831 180.52 110.653 167.623 103.844 148.906C100.363 139.348 85.401 114.67 85.401 114.67L85 45.772L98.281 46.608V38.821L101.274 37.125C112.848 30.599 123.559 10 136.302 6.647C149.058 3.294 163.847 -2 177.13 -2C203.709 -2 229.837 24.074 252.986 37.126L255.98 38.822Z" fill="white"/>
</mask>
<g mask="url(#mask0_78_578)">
<path d="M154.435 94.779C156.043 94.336 157.714 93.151 158.212 92.199C160.037 88.709 164.028 51.496 164.028 51.496L187.038 60.996C187.038 60.996 189.354 92.449 193.057 93.764C194.537 94.286 196.188 94.815 197.954 95.337L197.975 95.344C200.393 96.059 205.642 97.422 205.642 97.422V133.947L142.264 133.394L140.138 100.587C144.677 99.611 154.435 94.779 154.435 94.779Z" fill="#E38875"/>
<path d="M153.784 95.038C153.784 95.038 137.484 99.767 128.807 102.249C120.995 104.483 118.836 105.573 114.303 114.176C106.042 129.857 98.732 154.672 93.559 165.594C86.916 179.619 88.688 191.576 87.802 196.447C86.916 201.318 105.247 205.339 105.247 205.339L116.143 201.502V217.26H175.969V125.995C175.969 125.995 164.942 108.323 159.806 104.337C154.67 100.352 153.784 95.038 153.784 95.038Z" fill="#0D162B"/>
<path d="M198.155 95.038C198.155 95.038 219.512 101 222.621 102.084C232.392 105.49 235.838 112.191 238.314 116.576C247.028 132.01 253.208 154.673 258.381 165.595C265.023 179.62 263.252 191.577 264.138 196.448C265.024 201.319 239.069 206.546 239.069 206.546L235.797 172.535V217.261H175.971V125.996C175.971 125.996 186.998 108.324 192.134 104.338C197.269 100.352 198.155 95.038 198.155 95.038Z" fill="#0D162B"/>
<path d="M175.97 119.721C175.308 114.81 167.235 103.912 163.925 99.001C160.615 94.09 160.198 82.37 160.198 82.37C160.198 82.37 146.512 97.35 144.526 104.716C142.54 112.082 144.526 114.81 144.526 114.81C144.526 114.81 150.484 108.535 154.124 106.626C157.765 104.716 161.737 105.808 165.709 111.537C169.681 117.266 175.969 125.996 175.969 125.996V119.721H175.97Z" fill="#3A59FB"/>
<path d="M175.97 119.721C176.632 114.81 183.908 104.507 187.218 99.597C190.528 94.686 189.774 84.255 189.774 84.255C189.774 84.255 205.427 97.35 207.413 104.716C209.399 112.082 207.413 114.81 207.413 114.81C207.413 114.81 201.455 108.535 197.814 106.626C194.173 104.716 190.201 105.808 186.23 111.537C182.258 117.266 175.97 125.996 175.97 125.996V119.721Z" fill="#3A59FB"/>
<path d="M174.704 159.102C174.704 159.102 134.748 138.082 132.664 138.256C130.579 138.43 118.419 144.162 115.466 146.942C112.513 149.721 112.165 151.806 112.86 153.891C113.555 155.976 114.423 156.119 114.423 156.119C114.423 156.119 112.425 158.408 112.555 161.361C112.685 164.314 113.728 165.595 113.728 165.595C113.728 165.595 111.907 166.55 112.549 170.297C113.191 174.043 116.143 177.929 116.143 177.929L174.704 159.102Z" fill="#3A59FB"/>
<path d="M227.822 205.339C220.163 202.908 200.987 191.799 187.73 184.684C173.264 176.92 164.861 170.296 164.861 170.296C164.861 170.296 165.757 156.755 173.991 154.653C173.991 154.653 231.754 163.086 233.705 163.412C235.628 163.733 244.099 170.232 246.025 179.519C247.922 188.67 244.235 197.253 244.235 197.253L227.822 205.339Z" fill="#E38875"/>
<path d="M230.217 162.888C233.066 162.932 241.822 162.944 248.413 169.524C254.682 175.782 256.797 187.212 258.393 192.763C259.969 198.244 256.636 201.388 255.423 202.634C254.199 203.893 245.544 205.746 239.066 206.545C232.257 207.385 227.821 205.339 227.821 205.339C227.821 205.339 239.343 195.734 240.716 189.098C242.075 182.53 238.634 172.66 237.175 170.092C235.701 167.495 230.217 162.888 230.217 162.888Z" fill="#0D162B"/>
<path d="M123.931 205.339C131.59 202.908 150.766 191.799 164.023 184.684C178.489 176.92 187.785 168.191 187.785 168.191C187.785 168.191 185.995 156.754 177.762 154.652C177.762 154.652 115.293 164.603 113.342 164.928C111.419 165.249 107.654 170.23 105.728 179.518C103.831 188.669 107.518 197.252 107.518 197.252L123.931 205.339Z" fill="#E38875"/>
<path d="M113.342 164.929C110.617 164.913 109.765 166.029 103.086 172.652C96.817 178.91 94.955 187.212 93.359 192.764C91.783 198.245 95.116 201.389 96.329 202.635C97.553 203.894 106.208 205.747 112.686 206.546C119.495 207.386 123.931 205.34 123.931 205.34C123.931 205.34 112.409 195.735 111.036 189.099C109.677 182.531 110.102 172.616 110.956 169.787C112.03 166.228 113.342 164.929 113.342 164.929Z" fill="#0D162B"/>
<path d="M175.192 177.927C175.192 177.927 172.178 157.919 166.909 156.118C166.909 156.118 213.317 143.424 217.299 142.979C221.157 142.549 224.28 147.011 224.895 149.329C225.507 151.635 230.218 162.887 230.218 162.887C230.218 162.887 218.727 161.291 217.186 160.97C215.626 160.645 200.817 162.456 198.312 162.62C195.757 162.786 175.192 177.927 175.192 177.927Z" fill="#3A59FB"/>
<path d="M194.727 39.3C194.727 39.3 203.887 42.253 209.513 40.855C215.139 39.457 218.684 34.348 215.686 30.629C212.688 26.91 201.889 25.966 189.8 31.245L194.727 39.3Z" fill="#FB663A"/>
<path d="M197.659 24.2001C203.258 28.7041 205.154 37.986 202.907 45.751C201.462 50.743 197.074 56.893 197.074 56.893C197.074 56.893 192.5 39.635 189.642 33.576C186.784 27.517 182.134 19.576 182.134 19.576L197.659 24.2001Z" fill="#0D162B"/>
<path d="M187.486 22.689C191.005 24.507 197.082 28.424 197.505 31.543C197.928 34.661 199.67 43.766 199.493 49.165C199.315 54.563 200.699 65.022 200.086 71.343C199.474 77.664 199.294 84.157 191.018 88.244C183.373 92.019 174.429 87.321 168.105 83.337C160.748 78.701 157.934 74.492 157.892 61.024C157.892 61.024 152.374 36.46 153.572 32.696C156.484 23.548 175.282 26.759 180.591 25.781C185.901 24.801 187.486 22.689 187.486 22.689Z" fill="#E38875"/>
<path d="M155.552 32.042C153.86 35.035 159.839 38.467 160.394 41.133C161.503 46.464 160.334 52.767 160.334 52.767L158.504 57.97C158.504 57.97 161.33 68.667 159.544 74.15C158.573 77.134 140.197 53.44 144.021 36.452C146.218 26.691 153.151 25.448 153.151 25.448C154.284 15.439 158.63 11.231 178.105 11.038C197.58 10.845 199.02 25.891 197.869 27.813C196.718 29.735 187.608 30.59 182.518 31.081C163.86 32.88 168.43 29.707 160.989 28.669C159.405 28.449 157.244 29.048 155.552 32.042Z" fill="#0D162B"/>
<path d="M159.535 59.705C159.535 59.705 159.413 54.631 156.958 52.353C154.886 50.431 150.767 50.569 149.898 55.103C148.673 61.496 156.479 68.711 158.123 67.822L159.535 59.705Z" fill="#E38875"/>
<path d="M200.239 68.243C200.239 68.243 199.37 72.425 198.571 73.234C197.772 74.043 196.401 70.455 194.302 68.65C189.982 64.933 183.801 65.599 179.654 68.345C174.717 71.614 173.412 77.053 169.64 76.098C166.348 75.265 164.936 73.902 162.931 67.609C161.305 62.505 160.804 48.507 160.804 48.507L157.338 49.905C157.338 49.905 157.263 64.965 158.341 71.012C159.237 76.036 157.53 78.945 165.295 85.41C170.691 89.903 179.56 91.456 184.6 91.272C200.155 90.705 200.528 80.509 200.492 73.693C200.472 69.845 200.239 68.243 200.239 68.243ZM183.984 81.43C179.331 82.31 177.334 80.801 177.531 79.674C177.774 78.284 178.942 73.824 182.209 71.329C185.045 69.163 188.469 68.838 191.34 69.887C194.052 70.878 196.939 77.585 194.471 79.73C191.209 82.565 191.862 78.681 188.394 78.806C185.826 78.9 185.071 81.224 183.984 81.43Z" fill="#0D162B"/>
<path d="M144.037 48.946C144.037 48.946 146.921 44.441 167.341 36.099C183.648 29.437 202.265 28.351 202.265 28.351C202.265 28.351 196.574 2.43202 168.03 5.82802C152.957 7.62102 144.698 17.271 142.181 26.24C138.945 37.772 144.037 48.946 144.037 48.946Z" fill="#3A59FB"/>
<path d="M155.378 41.413C155.378 41.413 161.881 32.66 174.143 27.611C186.405 22.562 201.85 25.184 207.975 26.449C214.1 27.714 215.686 30.629 215.686 30.629C215.686 30.629 206.89 26.184 197.442 31.001C187.994 35.818 185.543 41.247 177.592 42.753C169.642 44.259 155.378 41.413 155.378 41.413Z" fill="#51D5FF"/>
</g>
<path d="M79.5198 42.9909C70.3418 28.5404 55.0288 26.3923 48.5195 27.1246C48.2754 27.2873 47.7872 27.7104 47.7872 28.101C47.7872 28.4915 48.2754 29.0774 48.5195 29.3215L63.6535 44.9436C63.979 45.1064 64.7275 46.2129 65.1181 49.3374C65.3134 51.0949 64.7113 52.3479 64.3858 52.7547L50.4723 66.4241C49.8214 67.1564 47.8361 68.621 45.1022 68.621C43.1494 68.621 41.0339 67.1564 40.2203 66.4241L25.5745 51.0461C25.0049 50.6392 23.7193 50.2161 23.1335 51.7784C22.5477 53.3406 23.3776 58.7758 23.8658 61.2981C24.1913 63.1695 26.0627 68.621 30.9446 75.4557C37.047 83.9991 47.2991 85.7078 52.181 86.196C56.0865 86.5865 60.4803 90.9152 62.1889 93.0307L96.5 150L102 146.5L107.469 142.826L113.022 139.287L120 138L82.6931 75.4557C81.3261 74.284 81.4726 67.5633 81.4726 65.2037C83.1812 61.054 84.7923 52.1689 79.5198 42.9909Z" fill="#F7FFFF"/>
<path d="M79.5198 42.9909C70.3418 28.5404 55.0288 26.3923 48.5195 27.1246C48.2754 27.2873 47.7872 27.7104 47.7872 28.101C47.7872 28.4915 48.2754 29.0774 48.5195 29.3215L63.6535 44.9436C63.979 45.1064 64.7275 46.2129 65.1181 49.3374C65.3134 51.0949 64.7113 52.3479 64.3858 52.7547L50.4723 66.4241C49.8214 67.1564 47.8361 68.621 45.1022 68.621C43.1494 68.621 41.0339 67.1564 40.2203 66.4241L25.5745 51.0461C25.0049 50.6392 23.7193 50.2161 23.1335 51.7784C22.5477 53.3406 23.3776 58.7758 23.8658 61.2981C24.1913 63.1695 26.0627 68.621 30.9446 75.4557C37.047 83.9991 47.2991 85.7078 52.181 86.196C56.0865 86.5865 60.4803 90.9152 62.1889 93.0307L96.5 150L102 146.5L107.469 142.826L113.022 139.287L120 138L82.6931 75.4557C81.3261 74.284 81.4726 67.5633 81.4726 65.2037C83.1812 61.054 84.7923 52.1689 79.5198 42.9909Z" fill="black"/>
<path d="M40.7084 70.5739L28.2595 56.1722L41.4407 69.3534C41.4407 69.3534 43.595 70.5567 45.1021 70.5739C46.943 70.5949 48.4381 69.4348 49.4959 68.8652C50.5536 68.2956 64.7926 53.4871 65.118 53.243C65.4435 52.9989 66.0944 52.169 66.0944 50.8021C66.0944 49.4351 65.118 46.4083 65.118 46.4083C65.118 46.4083 67.1926 48.8876 67.3149 50.8021C67.4226 52.4878 66.5826 54.138 66.0944 54.9517C65.6062 55.7654 49.74 71.2248 49.0077 71.5503C48.2754 71.8757 46.4691 72.5267 45.1021 72.5267C43.7352 72.5267 40.7084 70.5739 40.7084 70.5739Z" fill="#F7FFFF"/>
<path d="M69.2677 75.944C58.1369 84.7315 43.963 81.721 38.2674 79.1173L40.7084 81.07C46.1599 83.9178 59.7967 87.3189 70.7323 78.1409C81.6678 68.9628 81.6352 57.2299 80.252 52.5107L79.7638 57.6368C79.6825 61.3796 77.4693 70.281 69.2677 75.944Z" fill="#F7FFFF"/>
<path d="M135.539 242.809C144.717 257.26 160.03 259.408 166.54 258.675C166.784 258.513 167.272 258.09 167.272 257.699C167.272 257.309 166.784 256.723 166.54 256.479L151.406 240.856C151.08 240.694 150.332 239.587 149.941 236.463C149.746 234.705 150.348 233.452 150.673 233.045L164.587 219.376C165.238 218.644 167.223 217.179 169.957 217.179C171.91 217.179 174.025 218.644 174.839 219.376L189.485 234.754C190.054 235.161 191.34 235.584 191.926 234.022C192.511 232.459 191.681 227.024 191.193 224.502C190.868 222.631 188.996 217.179 184.114 210.344C178.012 201.801 167.76 200.092 162.878 199.604C158.973 199.214 154.579 194.885 152.87 192.769L118.697 135.895L107.59 142.974L96.5 150L132.366 210.344C133.733 211.516 133.586 218.237 133.586 220.596C131.878 224.746 130.267 233.631 135.539 242.809Z" fill="black"/>
<path d="M174.133 215.929L186.582 230.331L173.401 217.149C173.401 217.149 171.246 215.946 169.739 215.929C167.898 215.908 166.403 217.068 165.346 217.638C164.288 218.207 150.049 233.016 149.723 233.26C149.398 233.504 148.747 234.334 148.747 235.701C148.747 237.068 149.723 240.094 149.723 240.094C149.723 240.094 147.649 237.615 147.527 235.701C147.419 234.015 148.259 232.365 148.747 231.551C149.235 230.737 165.101 215.278 165.834 214.953C166.566 214.627 168.372 213.976 169.739 213.976C171.106 213.976 174.133 215.929 174.133 215.929Z" fill="#F7FFFF"/>
<path d="M145.574 210.559C156.705 201.771 170.878 204.782 176.574 207.386L174.133 205.433C168.682 202.585 155.045 199.184 144.109 208.362C133.174 217.54 133.206 229.273 134.589 233.992L135.078 228.866C135.159 225.123 137.372 216.222 145.574 210.559Z" fill="#F7FFFF"/>
<path d="M78.5434 90.8338L76.038 92.5683C75.5951 92.8749 75.1992 93.2443 74.8627 93.6649V93.6649C73.408 95.4834 73.2425 98.0164 74.4483 100.009L126.499 186.005C127.754 188.08 130.159 189.166 132.545 188.738L138.103 187.74" stroke="#F7FFFF" stroke-width="1.46458" stroke-linecap="round"/>
<path d="M188.296 251.805L286.664 107.366C286.996 107.034 287.66 105.971 287.66 104.377C287.66 102.783 286.996 101.721 286.664 101.389L268.982 88.9372C268.401 88.6882 267.14 88.3396 266.741 88.9372C266.343 89.5349 266.907 90.5144 267.239 90.9295L284.173 102.136C284.505 102.551 285.17 103.63 285.17 104.626C285.17 105.622 284.339 106.702 283.924 107.117L189.79 245.828C189.126 244.334 187.449 241.246 186.055 240.847C184.66 240.449 182.983 240.017 182.319 239.851V241.843C183.315 242.092 185.507 242.939 186.304 244.334C187.1 245.728 187.632 246.907 187.798 247.322C187.964 247.737 188.296 248.717 188.296 249.314V251.805Z" fill="white"/>
<path d="M178.085 241.345C178.002 240.764 177.737 239.602 177.338 239.602C176.94 239.602 174.516 241.096 173.354 241.843C173.022 242.009 172.507 242.341 173.105 242.341C173.702 242.341 176.674 241.677 178.085 241.345Z" fill="white"/>
<path d="M211.456 146.464C212.369 146.381 214.594 146.364 216.187 146.962C217.781 147.56 219.176 148.705 219.674 149.203C218.761 149.203 216.636 149.104 215.44 148.705C214.245 148.307 212.286 147.045 211.456 146.464Z" fill="white"/>
<path d="M214.942 141.234C216.104 141.234 218.678 141.384 219.674 141.981C220.67 142.579 222.247 143.89 222.911 144.472C221.583 144.472 218.777 144.322 218.18 143.724C217.383 143.525 215.689 142.479 214.942 141.981V141.234Z" fill="white"/>
<path d="M218.927 136.253L217.433 136.004L218.18 137.499L224.157 139.491C224.655 139.74 225.8 140.089 226.398 139.491L224.157 137.997L221.417 137.001L218.927 136.253Z" fill="white"/>
<path d="M221.417 131.771C222.579 132.02 225.103 132.618 225.9 133.016L227.892 133.763C228.473 134.095 229.585 134.809 229.386 135.008C229.187 135.208 227.975 134.759 227.394 134.51L222.164 132.767C221.998 132.767 221.616 132.667 221.417 132.269C221.218 131.87 221.334 131.771 221.417 131.771Z" fill="white"/>
<path fill-rule="evenodd" clip-rule="evenodd" d="M315.801 58.8043L293.886 38.6326C292.973 37.4705 290.15 35.1462 286.166 35.1462C282.38 34.947 279.774 37.0554 278.944 38.1346L254.84 73.0603C254.677 73.297 254.747 73.6224 254.994 73.7703L257.776 75.4397L258.141 75.6585C258.216 75.7034 258.312 75.6821 258.362 75.61L281.683 41.372L283.426 39.6288C283.758 39.2967 284.522 38.7322 284.92 39.1307C285.319 39.5292 285.087 40.2929 284.92 40.6249L282.679 42.8662C282.264 43.6133 281.434 45.2569 281.434 45.8546C281.434 46.4523 282.264 47.2658 282.679 47.5978L303.598 62.2907C305.673 63.8679 309.774 67.0722 309.575 67.2714C309.375 67.4706 308.994 67.1884 308.828 67.0224L282.181 49.092C281.766 48.843 280.787 48.3449 280.189 48.3449C279.591 48.3449 278.778 49.341 278.446 49.8391L261.76 74.4933C261.345 75.0744 260.515 76.2864 260.515 76.4856C260.515 76.6848 261.013 77.0667 261.262 77.2327L263.753 78.7269C265.662 79.64 269.431 81.5659 269.231 81.9643C269.032 82.3628 268.816 82.1303 268.733 81.9643L257.527 76.7346C255.95 75.8215 251.949 73.9953 248.562 73.9953C245.175 73.9953 243 75.4895 242.336 76.2366L238.849 80.9682C237.604 82.7114 235.114 86.7457 235.114 88.9372C235.114 91.1287 237.106 93.6689 238.102 94.665C244.494 99.1476 257.377 108.163 257.776 108.362C258.174 108.561 258.274 109.773 258.274 110.354C258.274 110.603 258.224 111.35 258.025 112.346C257.826 113.342 253.459 119.236 251.301 122.059C250.886 122.308 249.807 122.806 248.811 122.806C247.815 122.806 246.569 122.308 246.071 122.059L238.102 116.58C237.687 116.248 236.658 115.534 235.861 115.335C235.064 115.135 234.533 115.418 234.367 115.584L232.126 118.572C231.212 120.149 229.336 124.15 229.137 127.537C228.938 130.924 231.378 134.925 232.624 136.502L235.363 138.744C235.695 139.242 236.359 140.587 236.359 141.981C236.359 143.376 236.027 144.222 235.861 144.472L168.871 243.337L180.825 246.326L186.553 253.548L190.039 256.038L188.296 251.805V249.314C188.296 248.717 187.964 247.737 187.798 247.322C187.632 246.907 187.1 245.728 186.304 244.334C185.507 242.939 183.315 242.092 182.319 241.843V239.851C182.983 240.017 184.66 240.449 186.055 240.847C187.449 241.246 189.126 244.334 189.79 245.828L283.924 107.117C284.339 106.702 285.17 105.622 285.17 104.626C285.17 103.63 284.505 102.551 284.173 102.136L267.239 90.9295C266.907 90.5144 266.343 89.5349 266.741 88.9372C267.14 88.3396 268.401 88.6882 268.982 88.9372L286.664 101.389C286.996 101.721 287.66 102.783 287.66 104.377C287.66 105.971 286.996 107.034 286.664 107.366L188.296 251.805L190.039 256.038C219.923 212.125 279.741 124.25 279.94 124.051C280.139 123.852 280.521 123.802 280.687 123.802H281.932C282.928 123.802 285.02 123.752 285.419 123.553C285.817 123.354 286.581 122.308 286.913 121.81L297.123 106.868C297.787 106.037 299.115 104.178 299.115 103.381C299.115 102.584 297.787 101.389 297.123 100.891L280.687 89.4353C280.604 89.2693 280.488 88.8874 280.687 88.6882C280.886 88.489 281.268 88.7712 281.434 88.9372L298.119 100.393C298.534 100.725 299.464 101.389 299.862 101.389C300.261 101.389 300.859 100.891 301.108 100.642L303.598 97.4043H302.104V96.4082H300.36V94.914H298.866V93.9179H297.123V92.9218H295.629V91.9256H294.135V90.9295H292.142V89.6843H290.648V88.4392H289.154V87.443H287.66V86.4469H285.668V85.4508H284.173V83.9566H282.679V82.9605H281.185V81.9643H279.691V80.4701C279.276 80.1381 278.396 79.474 278.197 79.474C277.997 79.474 277.449 79.806 277.2 79.9721L275.208 82.4624C274.959 82.6284 274.411 82.9605 274.212 82.9605C274.013 82.9605 274.959 81.3002 275.457 80.4701L287.411 62.7888C287.66 62.5398 288.208 62.0915 288.407 62.2907C288.606 62.49 288.49 62.8718 288.407 63.0378L286.415 66.0262L286.166 67.5204H289.154V68.5166H291.146V69.7617H292.64V70.7579H294.135V72.003H295.629V72.9991H297.123V74.4933H299.115V75.4895H300.61V76.4856H302.104V77.9798L303.598 77.7308V78.9759L305.092 78.4779V79.723H307.084V81.2172L308.579 80.9682V82.4624L310.073 81.9643V83.4585L311.816 83.2095L312.065 84.2056C312.463 84.2056 312.895 83.7076 313.061 83.4585C313.559 82.6284 314.555 80.8686 314.555 80.4701C314.555 80.0717 314.057 79.308 313.808 78.9759L295.629 67.0224C295.546 66.7733 295.43 66.2255 295.629 66.0262C295.828 65.827 296.21 65.7772 296.376 65.7772C301.689 69.5957 312.513 77.2825 313.31 77.4817C314.107 77.681 314.638 77.0667 314.804 76.7346L316.299 74.7424C316.963 73.4972 318.39 70.3096 318.789 67.5204C319.187 64.7313 316.963 60.5475 315.801 58.8043ZM177.338 239.602C177.737 239.602 178.002 240.764 178.085 241.345C176.674 241.677 173.702 242.341 173.105 242.341C172.507 242.341 173.022 242.009 173.354 241.843C174.516 241.096 176.94 239.602 177.338 239.602Z" fill="black"/>
<path fill-rule="evenodd" clip-rule="evenodd" d="M252.048 117.825L231.129 103.381L228.39 107.366C228.224 107.615 227.892 108.212 227.892 108.611C227.892 109.009 228.39 110.105 228.639 110.603L230.631 112.097C230.797 112.097 231.129 112.197 231.129 112.595C231.129 112.994 230.299 113.757 229.884 114.09V115.086C230.133 115.252 230.631 115.683 230.631 116.082C230.631 116.48 229.967 117.41 229.635 117.825C228.971 117.659 227.543 117.427 227.145 117.825C226.746 118.223 226.315 118.987 226.149 119.319C226.564 119.568 227.344 120.216 227.145 120.813L226.896 122.059L224.157 122.557C223.741 122.972 222.911 123.901 222.911 124.3C222.911 124.698 223.575 125.13 223.907 125.296C224.074 125.379 224.306 126.392 223.907 126.79C222.994 126.873 221.069 127.089 220.67 127.288C220.172 127.537 219.674 128.533 219.674 129.031C219.674 129.43 220.338 129.862 220.67 130.028C220.836 130.277 221.118 130.825 220.919 131.024C220.72 131.223 219.508 131.937 218.927 132.269H217.433L216.935 133.016H216.437V134.261H217.433V136.004L218.927 136.253L221.417 137.001L224.157 137.997L226.398 139.491C225.8 140.089 224.655 139.74 224.157 139.491L218.18 137.499L217.433 136.004L216.935 136.502L216.437 137.001L216.187 136.253H211.705C211.456 136.419 210.958 136.801 210.958 137.001C210.958 137.2 211.29 137.25 211.456 137.25H213.448C213.697 137.25 214.245 137.349 214.444 137.748C214.643 138.146 214.527 138.246 214.444 138.246H211.456C211.29 138.329 210.958 138.545 210.958 138.744C210.958 138.943 211.29 139.159 211.456 139.242H213.199C213.531 139.242 214.195 139.292 214.195 139.491C214.195 139.69 214.029 139.906 213.946 139.989H211.456C211.207 140.072 210.709 140.338 210.709 140.736C210.709 141.134 211.207 141.234 211.456 141.234C212.203 141.234 213.697 141.284 213.697 141.483C213.697 141.682 213.531 141.898 213.448 141.981H210.958C210.626 142.479 209.962 143.525 209.962 143.724C209.962 143.924 210.626 144.472 210.958 144.721L210.709 146.215C209.879 146.132 208.218 146.414 208.218 148.207C208.218 150 209.049 151.61 209.464 152.192C209.962 152.773 211.207 154.084 212.203 154.682C213.199 155.28 214.776 155.429 215.44 155.429C217.267 155.097 220.919 153.985 220.919 152.192C220.919 149.95 220.67 150.697 220.421 150.199C220.172 149.701 221.417 148.705 222.164 148.705C222.762 148.705 223.741 148.207 224.157 147.958C224.356 147.759 224.24 146.879 224.157 146.464C224.074 146.049 223.907 145.069 223.907 144.472C223.907 143.724 224.655 143.724 225.402 143.724C225.999 143.724 226.481 144.056 226.647 144.222C227.062 143.807 227.892 142.878 227.892 142.479C227.892 142.081 227.394 141.483 227.145 141.234C227.062 140.985 226.946 140.288 227.145 139.491C227.344 138.694 228.058 138.993 228.39 139.242L229.884 139.491C230.299 139.242 231.129 138.495 231.129 137.499C231.129 136.502 230.299 135.091 229.884 134.51L227.892 129.031L224.655 127.288L227.892 127.537L228.639 122.557L227.892 122.059L229.386 121.561L233.62 115.086C234.201 114.754 235.463 114.09 235.861 114.09C236.259 114.09 239.348 115.916 240.842 116.829L246.818 120.813C247.317 121.062 248.412 121.561 248.811 121.561C249.209 121.561 250.637 120.564 251.301 120.066C251.965 119.568 252.048 117.825 252.048 117.825ZM225.9 133.016C225.103 132.618 222.579 132.02 221.417 131.771C221.334 131.771 221.218 131.87 221.417 132.269C221.616 132.667 221.998 132.767 222.164 132.767L227.394 134.51C227.975 134.759 229.187 135.208 229.386 135.008C229.585 134.809 228.473 134.095 227.892 133.763L225.9 133.016ZM219.674 141.981C218.678 141.384 216.104 141.234 214.942 141.234V141.981C215.689 142.479 217.383 143.525 218.18 143.724C218.777 144.322 221.583 144.472 222.911 144.472C222.247 143.89 220.67 142.579 219.674 141.981ZM216.187 146.962C214.594 146.364 212.369 146.381 211.456 146.464C212.286 147.045 214.245 148.307 215.44 148.705C216.636 149.104 218.761 149.203 219.674 149.203C219.176 148.705 217.781 147.56 216.187 146.962Z" fill="black"/>
<path d="M236.608 95.6611L256.78 109.109C256.946 109.358 257.278 110.005 257.278 110.603C257.278 111.201 256.448 112.678 256.033 113.342L253.293 116.58L231.627 102.136L236.608 95.6611Z" fill="black"/>
<path d="M232.624 136.502C231.378 134.925 228.938 130.924 229.137 127.537C229.336 124.15 231.212 120.149 232.126 118.572L234.367 115.584C234.533 115.418 235.064 115.135 235.861 115.335C236.658 115.534 237.687 116.248 238.102 116.58L246.071 122.059C246.569 122.308 247.815 122.806 248.811 122.806C249.807 122.806 250.886 122.308 251.301 122.059C253.459 119.236 257.826 113.342 258.025 112.346C258.224 111.35 258.274 110.603 258.274 110.354C258.274 109.773 258.174 108.561 257.776 108.362C257.377 108.163 244.494 99.1476 238.102 94.665L236.608 95.6611L256.78 109.109C256.946 109.358 257.278 110.005 257.278 110.603C257.278 111.201 256.448 112.678 256.033 113.342L253.293 116.58L231.627 102.136L231.129 103.381L252.048 117.825C252.048 117.825 251.965 119.568 251.301 120.066C250.637 120.564 249.209 121.561 248.811 121.561C248.412 121.561 247.317 121.062 246.818 120.813L240.842 116.829C239.348 115.916 236.259 114.09 235.861 114.09C235.463 114.09 234.201 114.754 233.62 115.086L229.386 121.561L227.892 122.059L228.639 122.557L227.892 127.537L224.655 127.288L227.892 129.031L229.884 134.51C230.299 135.091 231.129 136.502 231.129 137.499L232.624 136.502Z" fill="white"/>
<path d="M261.76 74.4933L278.446 49.8391C278.778 49.341 279.591 48.3449 280.189 48.3449C280.787 48.3449 281.766 48.843 282.181 49.092L308.828 67.0224C308.994 67.1884 309.375 67.4706 309.575 67.2714C309.774 67.0722 305.673 63.8679 303.598 62.2907L282.679 47.5978C282.264 47.2658 281.434 46.4523 281.434 45.8546C281.434 45.2569 282.264 43.6133 282.679 42.8662L284.92 40.6249C285.087 40.2929 285.319 39.5292 284.92 39.1307C284.522 38.7322 283.758 39.2967 283.426 39.6288L281.683 41.372L258.362 75.61L260.515 76.2366L261.76 74.4933Z" fill="white"/>
<path d="M313.31 77.4817C312.513 77.2825 301.689 69.5957 296.376 65.7772C296.21 65.7772 295.828 65.827 295.629 66.0262C295.43 66.2255 295.546 66.7733 295.629 67.0224L313.808 78.9759L313.31 77.4817Z" fill="white"/>
<path d="M299.862 101.389C299.464 101.389 298.534 100.725 298.119 100.393L281.434 88.9372C281.268 88.7712 280.886 88.489 280.687 88.6882C280.488 88.8874 280.604 89.2693 280.687 89.4353L297.123 100.891C297.787 101.389 299.115 102.584 299.115 103.381L299.862 101.389Z" fill="white"/>
<path d="M313.31 77.4817C314.107 77.681 314.638 77.0667 314.804 76.7346L316.299 74.7424C316.963 73.4972 318.39 70.3096 318.789 67.5204C319.187 64.7313 316.963 60.5475 315.801 58.8043L293.886 38.6326C292.973 37.4705 290.15 35.1462 286.166 35.1462C282.38 34.947 279.774 37.0554 278.944 38.1346L254.84 73.0603C254.677 73.297 254.747 73.6224 254.994 73.7703L257.776 75.4397M313.31 77.4817C312.513 77.2825 301.689 69.5957 296.376 65.7772C296.21 65.7772 295.828 65.827 295.629 66.0262C295.43 66.2255 295.546 66.7733 295.629 67.0224L313.808 78.9759M313.31 77.4817L313.808 78.9759M313.808 78.9759C314.057 79.308 314.555 80.0717 314.555 80.4701C314.555 80.8686 313.559 82.6284 313.061 83.4585C312.895 83.7075 312.463 84.2056 312.065 84.2056L311.816 83.2095L310.073 83.4585V81.9643L308.579 82.4624V80.9682L307.084 81.2172V79.723H305.092V78.4779L303.598 78.9759V77.7308L302.104 77.9798V76.4856H300.61V75.4895H299.115V74.4933H297.123V72.9991H295.629V72.003H294.135V70.7579H292.64V69.7617H291.146V68.5166H289.154V67.5204H286.166L286.415 66.0262L288.407 63.0378C288.49 62.8718 288.606 62.49 288.407 62.2907C288.208 62.0915 287.66 62.5398 287.411 62.7888L275.457 80.4701C274.959 81.3002 274.013 82.9605 274.212 82.9605C274.411 82.9605 274.959 82.6284 275.208 82.4624L277.2 79.9721C277.449 79.806 277.997 79.474 278.197 79.474C278.396 79.474 279.276 80.1381 279.691 80.4701V81.9643H281.185V82.9605H282.679V83.9566H284.173V85.4508H285.668V86.4469H287.66V87.443H289.154V88.4392H290.648V89.6843H292.142V90.9295H294.135V91.9256H295.629V92.9218H297.123V93.9179H298.866V94.914H300.36V96.4082H302.104V97.4043H303.598L301.108 100.642C300.859 100.891 300.261 101.389 299.862 101.389M299.862 101.389C299.464 101.389 298.534 100.725 298.119 100.393L281.434 88.9372C281.268 88.7712 280.886 88.489 280.687 88.6882C280.488 88.8874 280.604 89.2693 280.687 89.4353L297.123 100.891C297.787 101.389 299.115 102.584 299.115 103.381M299.862 101.389L299.115 103.381M299.115 103.381C299.115 104.178 297.787 106.037 297.123 106.868L286.913 121.81C286.581 122.308 285.817 123.354 285.419 123.553C285.02 123.752 282.928 123.802 281.932 123.802H280.687C280.521 123.802 280.139 123.852 279.94 124.051C279.741 124.25 219.923 212.125 190.039 256.038M190.039 256.038L188.296 251.805M190.039 256.038L186.553 253.548L180.825 246.326L168.871 243.337L235.861 144.472C236.027 144.222 236.359 143.376 236.359 141.981C236.359 140.587 235.695 139.242 235.363 138.744L232.624 136.502M188.296 251.805L286.664 107.366C286.996 107.034 287.66 105.971 287.66 104.377C287.66 102.783 286.996 101.721 286.664 101.389L268.982 88.9372C268.401 88.6882 267.14 88.3396 266.741 88.9372C266.343 89.5349 266.907 90.5144 267.239 90.9295L284.173 102.136C284.505 102.551 285.169 103.63 285.169 104.626C285.169 105.622 284.339 106.702 283.924 107.117L189.79 245.828C189.126 244.334 187.449 241.246 186.055 240.847C184.66 240.449 182.983 240.017 182.319 239.851V241.843C183.315 242.092 185.507 242.939 186.304 244.334C187.1 245.728 187.632 246.907 187.798 247.322C187.964 247.737 188.296 248.717 188.296 249.314M188.296 251.805C188.296 251.224 188.296 249.912 188.296 249.314M188.296 251.805V249.314M232.624 136.502C231.378 134.925 228.938 130.924 229.137 127.537C229.336 124.15 231.212 120.149 232.126 118.572L234.367 115.584C234.533 115.418 235.064 115.135 235.861 115.335C236.658 115.534 237.687 116.248 238.102 116.58L246.071 122.059C246.569 122.308 247.815 122.806 248.811 122.806C249.807 122.806 250.886 122.308 251.301 122.059C253.459 119.236 257.826 113.342 258.025 112.346C258.224 111.35 258.274 110.603 258.274 110.354C258.274 109.773 258.174 108.561 257.776 108.362C257.377 108.163 244.494 99.1476 238.102 94.665M232.624 136.502L231.129 137.499M238.102 94.665C237.106 93.6689 235.114 91.1287 235.114 88.9372C235.114 86.7457 237.604 82.7114 238.849 80.9682L242.336 76.2366C243 75.4895 245.175 73.9953 248.562 73.9953C251.949 73.9953 255.95 75.8215 257.527 76.7346L268.733 81.9643C268.816 82.1303 269.032 82.3628 269.231 81.9643C269.431 81.5659 265.662 79.64 263.753 78.7269L261.262 77.2327C261.013 77.0667 260.515 76.6848 260.515 76.4856C260.515 76.2864 261.345 75.0744 261.76 74.4933M238.102 94.665L236.608 95.6611M261.76 74.4933L278.446 49.8391C278.778 49.341 279.591 48.3449 280.189 48.3449C280.787 48.3449 281.766 48.843 282.181 49.092L308.828 67.0224C308.994 67.1884 309.375 67.4706 309.575 67.2714C309.774 67.0722 305.673 63.8679 303.598 62.2907L282.679 47.5978C282.264 47.2658 281.434 46.4523 281.434 45.8546C281.434 45.2569 282.264 43.6133 282.679 42.8662L284.92 40.6249C285.087 40.2929 285.319 39.5292 284.92 39.1307C284.522 38.7322 283.758 39.2967 283.426 39.6288L281.683 41.372L258.362 75.61M261.76 74.4933L260.515 76.2366L258.362 75.61M236.608 95.6611L256.78 109.109C256.946 109.358 257.278 110.005 257.278 110.603C257.278 111.201 256.448 112.678 256.033 113.342L253.293 116.58L231.627 102.136M236.608 95.6611L231.627 102.136M231.627 102.136L231.129 103.381M231.129 103.381L252.048 117.825C252.048 117.825 251.965 119.568 251.301 120.066C250.637 120.564 249.209 121.561 248.811 121.561C248.412 121.561 247.317 121.062 246.818 120.813L240.842 116.829C239.348 115.916 236.259 114.09 235.861 114.09C235.463 114.09 234.201 114.754 233.62 115.086L229.386 121.561L227.892 122.059L228.639 122.557L227.892 127.537L224.655 127.288L227.892 129.031L229.884 134.51C230.299 135.091 231.129 136.502 231.129 137.499M231.129 103.381L228.39 107.366C228.224 107.615 227.892 108.212 227.892 108.611C227.892 109.009 228.39 110.105 228.639 110.603L230.631 112.097C230.797 112.097 231.129 112.197 231.129 112.595C231.129 112.994 230.299 113.757 229.884 114.09V115.086C230.133 115.252 230.631 115.683 230.631 116.082C230.631 116.48 229.967 117.41 229.635 117.825C228.971 117.659 227.543 117.427 227.145 117.825C226.746 118.223 226.315 118.987 226.149 119.319C226.564 119.568 227.344 120.216 227.145 120.813L226.896 122.059L224.157 122.557C223.741 122.972 222.911 123.901 222.911 124.3C222.911 124.698 223.575 125.13 223.907 125.296C224.074 125.379 224.306 126.392 223.907 126.79C222.994 126.873 221.069 127.089 220.67 127.288C220.172 127.537 219.674 128.533 219.674 129.031C219.674 129.43 220.338 129.862 220.67 130.028C220.836 130.277 221.118 130.825 220.919 131.024C220.72 131.223 219.508 131.937 218.927 132.269H217.433L216.935 133.016H216.436V134.261H217.433V136.004M217.433 136.004L216.935 136.502L216.436 137.001M217.433 136.004L216.436 137.001M217.433 136.004L218.927 136.253L221.417 137.001L224.157 137.997L226.398 139.491C225.8 140.089 224.655 139.74 224.157 139.491L218.18 137.499L217.433 136.004ZM216.436 137.001L216.187 136.253H211.705C211.456 136.419 210.958 136.801 210.958 137.001C210.958 137.2 211.29 137.25 211.456 137.25H213.448C213.697 137.25 214.245 137.349 214.444 137.748C214.643 138.146 214.527 138.246 214.444 138.246H211.456C211.29 138.329 210.958 138.545 210.958 138.744C210.958 138.943 211.29 139.159 211.456 139.242H213.199C213.531 139.242 214.195 139.292 214.195 139.491C214.195 139.69 214.029 139.906 213.946 139.989H211.456C211.207 140.072 210.709 140.338 210.709 140.736C210.709 141.134 211.207 141.234 211.456 141.234C212.203 141.234 213.697 141.284 213.697 141.483C213.697 141.682 213.531 141.898 213.448 141.981H210.958C210.626 142.479 209.962 143.525 209.962 143.724C209.962 143.924 210.626 144.472 210.958 144.721L210.709 146.215C209.879 146.132 208.218 146.414 208.218 148.207C208.218 150 209.049 151.61 209.464 152.192C209.962 152.773 211.207 154.084 212.203 154.682C213.199 155.28 214.776 155.429 215.44 155.429C217.267 155.097 220.919 153.985 220.919 152.192C220.919 149.95 220.67 150.697 220.421 150.199C220.172 149.701 221.417 148.705 222.164 148.705C222.762 148.705 223.741 148.207 224.157 147.958C224.356 147.759 224.24 146.879 224.157 146.464C224.074 146.049 223.907 145.069 223.907 144.472C223.907 143.724 224.655 143.724 225.402 143.724C225.999 143.724 226.481 144.056 226.647 144.222C227.062 143.807 227.892 142.878 227.892 142.479C227.892 142.081 227.394 141.483 227.145 141.234C227.062 140.985 226.946 140.288 227.145 139.491C227.344 138.694 228.058 138.993 228.39 139.242L229.884 139.491C230.299 139.242 231.129 138.495 231.129 137.499M257.776 75.4397L258.141 75.6585C258.216 75.7034 258.312 75.6821 258.362 75.61V75.61M257.776 75.4397L258.362 75.61M178.085 241.345C178.002 240.764 177.737 239.602 177.338 239.602C176.94 239.602 174.516 241.096 173.354 241.843C173.022 242.009 172.507 242.341 173.105 242.341C173.702 242.341 176.674 241.677 178.085 241.345ZM221.417 131.771C222.579 132.02 225.103 132.618 225.9 133.016L227.892 133.763C228.473 134.095 229.585 134.809 229.386 135.008C229.187 135.208 227.975 134.759 227.394 134.51L222.164 132.767C221.998 132.767 221.616 132.667 221.417 132.269C221.218 131.87 221.334 131.771 221.417 131.771ZM214.942 141.234C216.104 141.234 218.678 141.384 219.674 141.981C220.67 142.579 222.247 143.89 222.911 144.472C221.583 144.472 218.777 144.322 218.18 143.724C217.383 143.525 215.689 142.479 214.942 141.981V141.234ZM211.456 146.464C212.369 146.381 214.594 146.364 216.187 146.962C217.781 147.56 219.176 148.705 219.674 149.203C218.761 149.203 216.636 149.104 215.44 148.705C214.245 148.307 212.286 147.045 211.456 146.464Z" stroke="black" stroke-width="0.498065"/>
<path d="M190.039 256.536C190.039 256.536 185.805 264.256 180.078 263.26C171.912 264.285 164.948 258.948 166.132 251.307C166.132 245.805 168.871 243.088 168.871 243.088C168.871 243.088 176.891 243.181 181.821 246.824C186.237 250.087 190.039 256.536 190.039 256.536Z" fill="black"/>
<circle cx="178.584" cy="250.809" r="4.48259" fill="white"/>
<path d="M10.1565 113.521C10.6242 115.859 15.1265 123.168 17.1729 126.676C21.3631 132.036 31.2638 143.807 37.3445 148.017C38.0462 148.485 47.7715 155.618 52.5464 159.126L65.4096 167.604C72.8157 171.405 88.0955 179.123 89.9665 179.59C91.8375 180.058 109.651 186.996 118.324 190.407C126.997 192.843 145.044 197.774 147.851 198.008C151.359 198.3 174.746 202.101 183.517 202.101C192.287 202.101 205.443 201.516 213.921 201.516C220.703 201.516 237.406 197.813 244.909 195.962C250.561 193.428 262.274 187.951 263.912 186.314C265.958 184.268 275.605 174.621 277.359 167.312C279.113 160.003 278.58 162.544 278.821 159.419C279.237 154.039 278.872 150.858 277.359 145.678C276.128 141.461 272.5 135 272.5 135L279.406 125.214C287.981 131.743 304.898 149.537 303.963 168.481C303.262 182.679 298.247 191.633 294.015 196.254C293.729 196.566 293.447 196.858 293.17 197.131C292.489 197.801 291.244 198.793 291.244 198.793C291.244 198.793 290.539 199.286 290.223 199.47C284.571 203.758 269.642 213.093 255.141 216.133C237.016 219.934 220.795 221.078 198.719 220.226C165.986 218.963 129.725 208.533 116.57 203.27C103.414 198.008 74.3723 187.321 51.0847 170.82C39.7064 162.758 31.79 156.203 23.6043 148.017C17.0558 141.469 12.1054 133.01 10.4488 129.6C8.20752 125.507 3.78337 115.333 4.01725 107.381C4.12838 103.603 4.80936 100.11 5.63834 97.2317C6.55395 94.053 7.65013 91.6246 8.35844 90.3912C7.5263 95.5143 7.57017 110.072 10.1565 113.521Z" fill="#3F78D2"/>
<path d="M290.223 199.47C284.571 203.758 269.642 213.093 255.141 216.133C237.016 219.934 220.795 221.078 198.719 220.226C165.986 218.963 129.725 208.533 116.57 203.27C103.414 198.008 74.3723 187.321 51.0847 170.82C39.7064 162.758 31.79 156.203 23.6043 148.017C17.0558 141.469 12.1054 133.01 10.4488 129.6C8.20752 125.507 3.78337 115.333 4.01725 107.381C4.12838 103.603 4.80936 100.11 5.63834 97.2317L3.72483 96.8569C3.43249 98.611 2.87262 103.257 2.8478 107.381C2.82577 111.042 3.43249 116.736 3.43249 116.736C3.43249 116.736 6.35593 125.214 6.94062 126.091C7.52531 126.968 8.97648 130.07 10.4488 132.523C12.1435 135.347 13.1974 136.87 15.1263 139.539C17.0793 142.242 18.1925 143.754 20.3885 146.263C23.0468 149.301 24.7896 150.772 27.6971 153.572C30.7231 156.486 32.3902 158.159 35.5904 160.88C38.2526 163.144 39.8422 164.297 42.6067 166.435C46.219 169.229 48.1924 170.873 51.9617 173.451C56.4868 176.546 59.2175 177.988 63.9478 180.76C68.3586 183.344 75.3492 187.191 75.3492 187.191L93.1823 195.669L113.062 203.563L127.679 208.533L142.296 212.625L163.345 217.303C168.802 218.082 174.558 218.832 181.763 219.642C188.717 220.423 199.596 221.396 199.596 221.396C199.596 221.396 217.057 221.396 228.245 221.396C237.406 220.519 257.538 217.946 264.789 214.672C272.039 211.398 276.125 210.804 282.329 206.486C286.103 203.859 291.244 198.793 291.244 198.793C291.244 198.793 290.539 199.286 290.223 199.47Z" fill="white"/>
<path d="M2.8478 107.381C2.87262 103.257 3.43249 98.611 3.72483 96.8569L0.2167 107.674C-0.270541 110.695 -0.251052 119.66 3.72483 131.354C7.70072 143.047 21.8601 157.776 37.3445 170.82C49.8674 181.37 60.3227 186.548 72.7181 193.331C88.2124 201.809 118.324 212.625 124.171 214.087C130.018 215.549 168.022 224.027 172.7 224.904C177.377 225.781 204.566 227.535 215.967 227.535C227.368 227.535 249.587 224.319 267.712 217.303C282.212 211.69 291.289 200.932 294.015 196.254C293.729 196.566 293.447 196.858 293.17 197.131C292.489 197.801 291.244 198.793 291.244 198.793C291.244 198.793 286.103 203.859 282.329 206.486C276.125 210.804 272.039 211.398 264.789 214.672C257.538 217.946 237.406 220.519 228.245 221.396C217.057 221.396 199.596 221.396 199.596 221.396C199.596 221.396 188.717 220.423 181.763 219.642C174.558 218.832 168.802 218.082 163.345 217.303L142.296 212.625L127.679 208.533L113.062 203.563L93.1823 195.669L75.3492 187.191C75.3492 187.191 68.3586 183.344 63.9478 180.76C59.2175 177.988 56.4868 176.546 51.9617 173.451C48.1924 170.873 46.219 169.229 42.6067 166.435C39.8422 164.297 38.2526 163.144 35.5904 160.88C32.3902 158.159 30.7231 156.486 27.6971 153.572C24.7896 150.772 23.0468 149.301 20.3885 146.263C18.1925 143.754 17.0793 142.242 15.1263 139.539C13.1974 136.87 12.1435 135.347 10.4488 132.523C8.97648 130.07 7.52531 126.968 6.94062 126.091C6.35593 125.214 3.43249 116.736 3.43249 116.736C3.43249 116.736 2.82577 111.042 2.8478 107.381Z" fill="#8EC5EB"/>
<path d="M271.512 136.616C273.559 140.026 277.593 148.719 277.359 156.203C277.125 163.687 275.313 169.846 274.436 171.989L272.097 175.498C273.266 171.015 275.137 160.413 273.266 153.864C271.395 147.316 268.784 143.34 267.712 142.17L271.512 136.616Z" fill="#8EC5EB"/>
<path d="M100.788 142.094L116.334 132.8L119.562 138.262L103.937 147.361L100.788 142.094Z" fill="black"/>
<path d="M94.9192 146.404L99.8806 143.407L103.08 148.722L98.0219 151.54L94.9192 146.404Z" fill="black"/>
</svg>
