<svg width="101" height="104" viewBox="0 0 101 104" fill="none" xmlns="http://www.w3.org/2000/svg">
<path d="M45 43.5L42.3539 46.1461C40.388 48.112 40.3524 51.0687 41.0706 53.7546C41.869 56.7409 39.9585 58.0237 35.1664 59.7617C34.7678 59.9063 34.5 60.2835 34.5 60.7075V67.1616C34.5 67.6466 34.851 68.0607 35.3268 68.1542C41.9053 69.4469 43.3255 71.4413 40.3285 76.9164C40.134 77.2716 40.1611 77.7094 40.4079 78.0303L44.5556 83.4222C44.8204 83.7665 45.2781 83.8989 45.689 83.7581C51.7084 81.6953 54.4104 82.1969 56.2751 87.7877C56.4148 88.2068 56.8026 88.5 57.2444 88.5H63.817C64.2289 88.5 64.5976 88.2451 64.7558 87.8648C66.9211 82.6588 69.2166 81.5477 74.8516 83.7394C75.2421 83.8913 75.6888 83.7955 75.973 83.4876L81.005 78.0362C81.2999 77.7168 81.3525 77.2428 81.1453 76.8606C78.056 71.1621 79.1689 69.4182 85.6727 68.1534C86.1488 68.0608 86.5 67.6466 86.5 67.1616V60.7656C86.5 60.3138 86.1954 59.9188 85.7608 59.7952C80.4288 58.2795 78.1438 56.7378 78.6301 54.2258C79.228 51.1375 79.7777 47.7777 77.5535 45.5535L75.5 43.5" stroke="#2266D1" stroke-width="6"/>
<path d="M3 22C3 16.4772 7.47715 12 13 12C18.5228 12 23 16.4772 23 22V82.0485C19.5904 79.337 16.0842 77.7206 12.1625 78.0556C9.00603 78.3253 6.01917 79.8324 3 82.1928V22Z" stroke="#2266D1" stroke-width="6"/>
<path d="M3 78.3608V101H98V28H75.4257" stroke="#2266D1" stroke-width="6"/>
<path d="M53 18H63C65.7614 18 68 15.7614 68 13V9C68 6.23858 65.7614 4 63 4H58C55.2386 4 53 6.23858 53 9V18ZM53 18V59L60.5 70L68 59V36.5M68 30.5V25.5M43 28.5H32.5" stroke="#2266D1" stroke-width="7"/>
</svg>
