<svg width="127" height="87" viewBox="0 0 127 87" fill="none" xmlns="http://www.w3.org/2000/svg">
<path d="M85.5 71V46.5M85.5 71H52.5M85.5 71H91M17.5 34V70C17.5 70.5523 17.9477 71 18.5 71H25.5M17.5 34H42.5M17.5 34H4M17.5 34V19M17.5 19V5C17.5 4.44772 17.9477 4 18.5 4H84.5C85.0523 4 85.5 4.44772 85.5 5V23.5M17.5 19H45.5M17.5 19H9M85.5 23.5H103.044C103.334 23.5 103.609 23.6254 103.799 23.8438L123.5 46.5M85.5 23.5V46.5M123.5 46.5H85.5M123.5 46.5V70C123.5 70.5523 123.052 71 122.5 71H117.5" stroke="white" stroke-width="7" stroke-linecap="round"/>
<circle cx="40" cy="70.5" r="12.5" stroke="white" stroke-width="7"/>
<circle cx="104" cy="70.5" r="12.5" stroke="white" stroke-width="7"/>
</svg>
